<?xml version="1.0" encoding="UTF-8" standalone="no"?>
<!-- Created with Inkscape (http://www.inkscape.org/) -->

<svg
   width="256"
   height="256"
   viewBox="0 0 67.733332 67.733332"
   version="1.1"
   id="svg1"
   xml:space="preserve"
   inkscape:version="1.4 (86a8ad7, 2024-10-11)"
   sodipodi:docname="icon.svg"
   inkscape:export-filename="icon-96.png"
   inkscape:export-xdpi="36"
   inkscape:export-ydpi="36"
   xmlns:inkscape="http://www.inkscape.org/namespaces/inkscape"
   xmlns:sodipodi="http://sodipodi.sourceforge.net/DTD/sodipodi-0.dtd"
   xmlns="http://www.w3.org/2000/svg"
   xmlns:svg="http://www.w3.org/2000/svg"><sodipodi:namedview
     id="namedview1"
     pagecolor="#ffffff"
     bordercolor="#000000"
     borderopacity="0.25"
     inkscape:showpageshadow="2"
     inkscape:pageopacity="0.0"
     inkscape:pagecheckerboard="0"
     inkscape:deskcolor="#d1d1d1"
     inkscape:document-units="mm"
     inkscape:zoom="2.0186728"
     inkscape:cx="149.60324"
     inkscape:cy="203.35143"
     inkscape:window-width="2560"
     inkscape:window-height="1351"
     inkscape:window-x="-9"
     inkscape:window-y="-9"
     inkscape:window-maximized="1"
     inkscape:current-layer="layer1" /><defs
     id="defs1" /><g
     inkscape:label="Layer 1"
     inkscape:groupmode="layer"
     id="layer1"><g
       id="g3"
       transform="matrix(2.2245148,0,0,2.2245148,-3.2765988,2.8142783)"><rect
         style="fill:#e7bb00;fill-opacity:1;stroke-width:0.264828"
         id="rect2"
         width="25.02334"
         height="18.535809"
         x="3.1510875"
         y="6.9045892"
         ry="2.1626213" /><g
         style="fill:none"
         id="g1"
         transform="matrix(0.02423753,0.00510171,-0.00510171,0.02423753,8.3968063,-6.4050107)"><path
           d="M 351.121,315.106 C 416.241,363.994 486.281,463.123 512,516.315 537.719,463.123 607.759,363.994 672.879,315.106 719.866,279.83 796,252.536 796,339.388 c 0,17.346 -9.945,145.713 -15.778,166.555 -20.275,72.453 -94.155,90.933 -159.875,79.748 114.875,19.551 144.097,84.311 80.986,149.071 -119.86,122.992 -172.272,-30.859 -185.702,-70.281 -2.462,-7.227 -3.614,-10.608 -3.631,-7.733 -0.017,-2.875 -1.169,0.506 -3.631,7.733 -13.43,39.422 -65.842,193.273 -185.702,70.281 -63.111,-64.76 -33.889,-129.52 80.986,-149.071 -65.72,11.185 -139.6,-7.295 -159.875,-79.748 C 237.945,485.101 228,356.734 228,339.388 c 0,-86.852 76.134,-59.558 123.121,-24.282 z"
           fill="#1185fe"
           id="path1" /></g><rect
         style="fill:#e7bb00;fill-opacity:1;stroke-width:0.323416"
         id="rect1"
         width="5.6431422"
         height="21.586266"
         x="3.1510875"
         y="3.7998409"
         ry="2.237885" /><rect
         style="fill:#ffce00;fill-opacity:1;stroke-width:0.270386"
         id="rect3"
         width="25.256609"
         height="15.219273"
         x="9.8645124"
         y="11.23196"
         ry="2.1997085"
         transform="matrix(1,0,-0.273806,0.96178494,0,0)" /></g></g></svg>
