<?xml version="1.0" encoding="UTF-8" standalone="no"?>
<!-- Created with Inkscape (http://www.inkscape.org/) -->

<svg
   width="256"
   height="256"
   viewBox="0 0 67.733332 67.733332"
   version="1.1"
   id="svg1"
   xml:space="preserve"
   inkscape:version="1.4.2 (f4327f4, 2025-05-13)"
   sodipodi:docname="icon.svg"
   inkscape:export-filename="icon-192.png"
   inkscape:export-xdpi="72"
   inkscape:export-ydpi="72"
   xmlns:inkscape="http://www.inkscape.org/namespaces/inkscape"
   xmlns:sodipodi="http://sodipodi.sourceforge.net/DTD/sodipodi-0.dtd"
   xmlns:xlink="http://www.w3.org/1999/xlink"
   xmlns="http://www.w3.org/2000/svg"
   xmlns:svg="http://www.w3.org/2000/svg"><sodipodi:namedview
     id="namedview1"
     pagecolor="#ffffff"
     bordercolor="#000000"
     borderopacity="0.25"
     inkscape:showpageshadow="2"
     inkscape:pageopacity="0.0"
     inkscape:pagecheckerboard="0"
     inkscape:deskcolor="#d1d1d1"
     inkscape:document-units="mm"
     inkscape:zoom="2.0186728"
     inkscape:cx="177.09656"
     inkscape:cy="180.56418"
     inkscape:window-width="2560"
     inkscape:window-height="1351"
     inkscape:window-x="-9"
     inkscape:window-y="-9"
     inkscape:window-maximized="1"
     inkscape:current-layer="layer1" /><defs
     id="defs1"><inkscape:path-effect
       effect="fillet_chamfer"
       id="path-effect8"
       is_visible="true"
       lpeversion="1"
       nodesatellites_param="F,0,0,1,0,0,0,1 @ F,0,0,1,0,0,0,1 @ F,0,0,1,0,0,0,1 @ F,0,0,1,0,0.72016156,0,1 @ F,0,0,1,0,0.85845167,0,1 @ F,0,0,1,0,0.64431588,0,1 @ F,0,0,1,0,0,0,1"
       radius="0"
       unit="px"
       method="auto"
       mode="F"
       chamfer_steps="1"
       flexible="false"
       use_knot_distance="true"
       apply_no_radius="true"
       apply_with_radius="true"
       only_selected="false"
       hide_knots="false" /><inkscape:path-effect
       effect="fillet_chamfer"
       id="path-effect5"
       is_visible="true"
       lpeversion="1"
       nodesatellites_param="F,0,0,1,0,0,0,1 @ F,0,0,1,0,0,0,1 @ F,0,0,1,0,0,0,1 @ F,0,0,1,0,1.1046068,0,1 @ F,0,0,1,0,0,0,1 @ F,0,0,1,0,0.96318763,0,1 @ F,0,0,1,0,0,0,1"
       radius="0"
       unit="px"
       method="auto"
       mode="F"
       chamfer_steps="1"
       flexible="false"
       use_knot_distance="true"
       apply_no_radius="true"
       apply_with_radius="true"
       only_selected="false"
       hide_knots="false" /><linearGradient
       id="linearGradient3"
       inkscape:collect="always"><stop
         style="stop-color:#1185fe;stop-opacity:1;"
         offset="0.09683099"
         id="stop3" /><stop
         style="stop-color:#80bafe;stop-opacity:1;"
         offset="1"
         id="stop4" /></linearGradient><linearGradient
       id="linearGradient2"><stop
         style="stop-color:#e59b5d;stop-opacity:1;"
         offset="0.12700731"
         id="stop2" /><stop
         style="stop-color:#b2a847;stop-opacity:0;"
         offset="1"
         id="stop1" /></linearGradient><linearGradient
       id="linearGradient4"><stop
         style="stop-color:#ffef66;stop-opacity:1;"
         offset="0"
         id="stop12" /><stop
         style="stop-color:#ffab66;stop-opacity:1;"
         offset="1"
         id="stop13" /></linearGradient><linearGradient
       id="linearGradient4-1"><stop
         style="stop-color:#b2a848;stop-opacity:1;"
         offset="0"
         id="stop5" /><stop
         style="stop-color:#b27848;stop-opacity:1;"
         offset="1"
         id="stop6" /></linearGradient><linearGradient
       inkscape:collect="always"
       xlink:href="#linearGradient4"
       id="linearGradient6"
       x1="15.66276"
       y1="3.6608205"
       x2="15.66276"
       y2="28.684158"
       gradientUnits="userSpaceOnUse" /><linearGradient
       inkscape:collect="always"
       xlink:href="#linearGradient4"
       id="linearGradient9"
       x1="22.492817"
       y1="6.2132926"
       x2="22.492817"
       y2="31.4699"
       gradientUnits="userSpaceOnUse" /><linearGradient
       inkscape:collect="always"
       xlink:href="#linearGradient3"
       id="linearGradient5"
       x1="512"
       y1="247.50067"
       x2="512"
       y2="815.50067"
       gradientUnits="userSpaceOnUse" /><filter
       inkscape:collect="always"
       style="color-interpolation-filters:sRGB"
       id="filter14"
       x="-0.045310318"
       y="-0.07397844"
       width="1.0906206"
       height="1.1479569"><feGaussianBlur
         inkscape:collect="always"
         stdDeviation="0.48272626"
         id="feGaussianBlur14" /></filter><mask
       maskUnits="userSpaceOnUse"
       id="mask1"><rect
         style="fill:url(#linearGradient7);stroke-width:1.03458;stroke-dasharray:none;filter:url(#filter14)"
         id="rect4"
         width="25.569077"
         height="15.660549"
         x="8.683073"
         y="10.259501"
         ry="2.2634881"
         transform="matrix(1,0,-0.2660908,0.93468413,2.9032549e-8,0.75852137)"
         inkscape:label="shadow" /></mask><linearGradient
       inkscape:collect="always"
       xlink:href="#linearGradient4-1"
       id="linearGradient7"
       gradientUnits="userSpaceOnUse"
       gradientTransform="matrix(1,0,0,1.0289946,-1.1814412,-1.2981238)"
       x1="22.492817"
       y1="6.2132926"
       x2="22.492817"
       y2="31.4699" /><linearGradient
       inkscape:collect="always"
       xlink:href="#linearGradient4-1"
       id="linearGradient10"
       x1="15.662792"
       y1="5.1550713"
       x2="15.662792"
       y2="30.178425"
       gradientUnits="userSpaceOnUse" /></defs><g
     inkscape:label="Layer 1"
     inkscape:groupmode="layer"
     id="layer1"><g
       id="g3"
       transform="matrix(2.2245148,0,0,2.2245148,-4.2062271,3.6006868)"
       style="stroke-width:1.00022;stroke-dasharray:none"><path
         id="rect2"
         style="display:inline;fill:url(#linearGradient6);stroke-width:1.00022;stroke-dasharray:none"
         d="m 5.3889032,3.7998103 c -1.2397883,0 -2.2377872,0.9982312 -2.2377872,2.2380195 V 9.06731 23.148202 23.277828 c 0,1.198092 0.9644285,2.16252 2.1625206,2.16252 H 26.011716 c 1.198092,0 2.162753,-0.964428 2.162753,-2.16252 V 9.06731 c 0,-1.1980922 -0.964661,-2.1627529 -2.162753,-2.1627529 H 8.7942518 V 6.0378298 c 0,-1.2397883 -0.9982312,-2.2380195 -2.2380195,-2.2380195 z" /><path
         id="path17"
         style="display:inline;opacity:1;mix-blend-mode:normal;fill:url(#linearGradient10);fill-opacity:1;stroke-width:1.00022;stroke-dasharray:none"
         d="m 5.3889032,3.7998103 c -1.2397883,0 -2.2377872,0.9982312 -2.2377872,2.2380195 V 9.06731 23.148202 23.277828 c 0,1.198092 0.9644285,2.16252 2.1625206,2.16252 H 26.011716 c 1.198092,0 2.162753,-0.964428 2.162753,-2.16252 V 9.06731 c 0,-1.1980922 -0.964661,-2.1627529 -2.162753,-2.1627529 H 8.7942518 V 6.0378298 c 0,-1.2397883 -0.9982312,-2.2380195 -2.2380195,-2.2380195 z"
         inkscape:label="mask"
         clip-path="none"
         transform="matrix(1,0,0,1.0313088,0,-0.78226976)"
         mask="url(#mask1)" /><g
         style="fill:none;stroke-width:40.3824;stroke-dasharray:none"
         id="g1"
         transform="matrix(0.02423753,0.00510171,-0.00510171,0.02423753,8.3968063,-6.4050107)"><path
           d="M 351.121,315.106 C 416.241,363.994 486.281,463.123 512,516.315 537.719,463.123 607.759,363.994 672.879,315.106 719.866,279.83 796,252.536 796,339.388 c 0,17.346 -9.945,145.713 -15.778,166.555 -20.275,72.453 -94.155,90.933 -159.875,79.748 114.875,19.551 144.097,84.311 80.986,149.071 -119.86,122.992 -172.272,-30.859 -185.702,-70.281 -2.462,-7.227 -3.614,-10.608 -3.631,-7.733 -0.017,-2.875 -1.169,0.506 -3.631,7.733 -13.43,39.422 -65.842,193.273 -185.702,70.281 -63.111,-64.76 -33.889,-129.52 80.986,-149.071 -65.72,11.185 -139.6,-7.295 -159.875,-79.748 C 237.945,485.101 228,356.734 228,339.388 c 0,-86.852 76.134,-59.558 123.121,-24.282 z"
           fill="#1185fe"
           id="path1"
           style="stroke-width:40.38244716;stroke-dasharray:none;fill:url(#linearGradient5)" /><path
           d="M 351.121,315.106 C 416.241,363.994 486.281,463.123 512,516.315 537.719,463.123 607.759,363.994 672.879,315.106 719.866,279.83 796,252.536 796,339.388 c 0,17.346 -9.945,145.713 -15.778,166.555 -20.275,72.453 -94.155,90.933 -159.875,79.748 114.875,19.551 144.097,84.311 80.986,149.071 -119.86,122.992 -172.272,-30.859 -185.702,-70.281 -2.462,-7.227 -3.614,-10.608 -3.631,-7.733 -0.017,-2.875 -1.169,0.506 -3.631,7.733 -13.43,39.422 -65.842,193.273 -185.702,70.281 -63.111,-64.76 -33.889,-129.52 80.986,-149.071 -65.72,11.185 -139.6,-7.295 -159.875,-79.748 C 237.945,485.101 228,356.734 228,339.388 c 0,-86.852 76.134,-59.558 123.121,-24.282 z"
           fill="#1185fe"
           id="path2"
           style="display:none;stroke-width:40.3824;stroke-dasharray:none" /></g><rect
         style="fill:url(#linearGradient9);stroke-width:1.0199;stroke-dasharray:none"
         id="rect3"
         width="25.569077"
         height="15.219273"
         x="9.8645124"
         y="11.23196"
         ry="2.1997085"
         transform="matrix(1,0,-0.273806,0.96178494,0,0)" /></g></g></svg>
